HIERARCHY
ROOT root
{
	OFFSET 0.000000 0.000000 0.000000
	CHANNELS 6 Xposition Yposition Zposition Zrotation Yrotation Xrotation
	JOINT lhip
	{
		OFFSET 0.058581 -0.082280 -0.017664
		CHANNELS 3 Zrotation Yrotation Xrotation
		JOINT lknee
		{
			OFFSET 0.043451 -0.386469 0.008037
			CHANNELS 3 Zrotation Yrotation Xrotation
			JOINT lankle
			{
				OFFSET -0.014790 -0.426874 -0.037428
				CHANNELS 3 Zrotation Yrotation Xrotation
				JOINT ltoe
				{
					OFFSET 0.041054 -0.060286 0.122042
					CHANNELS 3 Zrotation Yrotation Xrotation
					End Site
					{
						OFFSET 0.000000 0.000000 0.000000
					}
				}
			}
		}
	}
	JOINT rhip
	{
		OFFSET -0.060310 -0.090513 -0.013543
		CHANNELS 3 Zrotation Yrotation Xrotation
		JOINT rknee
		{
			OFFSET -0.043257 -0.383688 -0.004843
			CHANNELS 3 Zrotation Yrotation Xrotation
			JOINT rankle
			{
				OFFSET 0.019056 -0.420046 -0.034562
				CHANNELS 3 Zrotation Yrotation Xrotation
				JOINT rtoe
				{
					OFFSET -0.034840 -0.062106 0.130323
					CHANNELS 3 Zrotation Yrotation Xrotation
					End Site
					{
						OFFSET 0.000000 0.000000 0.000000
					}
				}
			}
		}
	}
	JOINT lowerback
	{
		OFFSET 0.004439 0.124404 -0.038385
		CHANNELS 3 Zrotation Yrotation Xrotation
		JOINT upperback
		{
			OFFSET 0.004488 0.137956 0.026820
			CHANNELS 3 Zrotation Yrotation Xrotation
			JOINT chest
			{
				OFFSET -0.002265 0.056032 0.002855
				CHANNELS 3 Zrotation Yrotation Xrotation
				JOINT lowerneck
				{
					OFFSET -0.013390 0.211636 -0.033468
					CHANNELS 3 Zrotation Yrotation Xrotation
					JOINT upperneck
					{
						OFFSET 0.010113 0.088937 0.050410
						CHANNELS 3 Zrotation Yrotation Xrotation
						End Site
						{
							OFFSET 0.000000 0.000000 0.000000
						}
					}
				}
				JOINT lclavicle
				{
					OFFSET 0.071702 0.114000 -0.018898
					CHANNELS 3 Zrotation Yrotation Xrotation
					JOINT lshoulder
					{
						OFFSET 0.122921 0.045205 -0.019046
						CHANNELS 3 Zrotation Yrotation Xrotation
						JOINT lelbow
						{
							OFFSET 0.255332 -0.015649 -0.022946
							CHANNELS 3 Zrotation Yrotation Xrotation
							JOINT lwrist
							{
								OFFSET 0.265709 0.012698 -0.007375
								CHANNELS 3 Zrotation Yrotation Xrotation
								End Site
								{
									OFFSET 0.000000 0.000000 0.000000
								}
							}
						}
					}
				}
				JOINT rclavicle
				{
					OFFSET -0.082954 0.112472 -0.023707
					CHANNELS 3 Zrotation Yrotation Xrotation
					JOINT rshoulder
					{
						OFFSET -0.113228 0.046853 -0.008472
						CHANNELS 3 Zrotation Yrotation Xrotation
						JOINT relbow
						{
							OFFSET -0.260127 -0.014369 -0.031269
							CHANNELS 3 Zrotation Yrotation Xrotation
							JOINT rwrist
							{
								OFFSET -0.269108 0.006794 -0.006027
								CHANNELS 3 Zrotation Yrotation Xrotation
								End Site
								{
									OFFSET 0.000000 0.000000 0.000000
								}
							}
						}
					}
				}
			}
		}
	}
}
MOTION
Frames: 11
Frame Time: 0.033333
-0.586598 0.842502 1.001130 89.401649 -1.802346 102.733825 4.191342 -0.448477 -18.016841 3.979726 -3.207969 0.788185 -8.569146 0.661931 -7.643576 0.000000 -0.000000 0.000000 4.136362 -2.112261 -15.644509 -6.517044 -4.875137 -1.408622 4.133898 -10.829009 -15.333319 0.000000 -0.000000 0.000000 -3.046288 5.379104 15.667662 2.453965 -4.331336 0.686427 2.234288 3.085121 -6.389084 -2.171379 12.658831 -11.990313 -1.817918 -9.901490 18.233674 -8.861480 -33.790720 -10.827978 -5.991519 -35.355139 -13.338450 45.930819 -45.942845 -27.744070 11.116141 -42.671727 30.375034 19.841828 35.273470 1.729748 11.767779 36.144619 -12.316112 -68.034692 47.685519 -40.539248 -20.144802 21.497330 21.897403 
-0.583994 0.840428 1.000630 89.909502 -1.830157 102.836273 4.264835 -0.510658 -17.959044 4.124238 -3.285601 0.610243 -8.822089 -0.209239 -7.490115 0.000000 -0.000000 0.000000 4.184186 -1.862541 -15.483181 -6.734704 -6.364781 -1.375672 4.011829 -10.104278 -15.350794 0.000000 -0.000000 0.000000 -3.519921 5.495822 15.457448 3.265569 -5.194647 0.008077 2.268194 2.576107 -6.196681 -1.773787 14.770459 -11.715951 -2.330067 -11.497437 18.508559 -9.624652 -33.203191 -9.858887 -5.153821 -35.760653 -15.777592 45.842472 -46.885335 -27.041944 11.549599 -43.345391 30.043930 22.914643 32.656678 3.569155 20.102206 36.155000 -6.401684 -81.779717 52.426158 -50.034914 -34.497976 27.055666 16.747620 
-0.582321 0.838596 1.000091 90.209483 -1.702819 103.140842 4.598294 -1.084937 -18.258384 4.158046 -2.726648 0.650415 -8.790654 -0.273604 -7.247107 0.000000 -0.000000 0.000000 4.355466 -1.401138 -15.788440 -6.862827 -7.499735 -0.988199 4.092658 -9.755771 -15.821937 0.000000 -0.000000 0.000000 -4.029433 5.576574 15.254684 4.206653 -5.644056 -1.148432 2.399667 2.200845 -5.753187 -1.592887 16.359844 -11.672570 -3.001208 -12.854303 19.123098 -9.923314 -32.118389 -8.469438 -5.518860 -37.035000 -17.789441 45.935530 -46.393228 -25.679827 14.740653 -44.906911 27.299431 25.829367 29.612477 5.638961 27.097482 33.747334 -0.953093 -91.097737 56.898107 -52.772084 -42.650011 32.591802 10.932749 
-0.580556 0.836847 1.000232 90.448697 -1.608728 102.826284 4.805436 -1.542551 -17.725741 4.232840 -3.197948 0.554364 -8.829483 0.154768 -7.469483 0.000000 -0.000000 0.000000 4.456213 -1.216156 -15.168449 -6.800192 -7.878636 -1.107893 3.896632 -10.057282 -16.118421 0.000000 -0.000000 0.000000 -4.145299 5.497987 15.304829 4.574717 -6.009688 -1.685877 2.464562 1.631789 -5.229690 -1.868015 17.348238 -11.948806 -2.786467 -13.252210 19.328154 -10.579961 -31.113045 -7.682752 -5.457229 -37.776551 -18.718214 45.122608 -46.082115 -24.491223 16.626853 -45.254951 25.557559 28.127214 27.148636 6.835256 33.413707 31.181208 4.161055 -88.774532 59.901519 -48.889953 -49.124358 34.005531 9.364980 
-0.579613 0.836109 1.000221 90.271844 -1.421420 102.783850 4.951465 -1.309838 -17.687854 4.089752 -2.510901 0.742880 -8.588261 0.067410 -7.542654 0.000000 -0.000000 0.000000 4.702615 -0.997970 -15.100688 -6.932339 -7.962005 -1.006594 3.491508 -10.026415 -16.130162 0.000000 -0.000000 0.000000 -4.206958 4.886625 15.062107 4.506659 -5.946350 -1.723664 2.588958 1.555581 -5.047796 -2.245812 16.676145 -12.324084 -2.150490 -12.481618 19.603513 -11.099150 -29.941112 -7.496544 -7.485712 -38.191124 -17.600685 47.939109 -46.835541 -27.634324 11.475233 -43.107732 28.400423 29.144829 26.180559 7.765035 39.098159 28.232884 7.573644 -74.284276 59.233905 -37.454345 -36.360713 30.282406 12.290406 
-0.579670 0.835941 1.000927 89.857826 -1.205585 102.689303 5.178605 -1.095950 -17.519531 3.901517 -2.260631 0.880097 -8.146944 0.000103 -7.765519 0.000000 -0.000000 0.000000 4.903879 -1.274924 -15.123411 -6.825998 -7.655256 -0.811868 2.950103 -9.607649 -16.007737 0.000000 -0.000000 0.000000 -4.151055 4.296428 14.935511 4.085487 -5.558443 -1.335218 2.974490 1.769924 -5.262668 -3.218552 15.102666 -13.011090 -0.996258 -10.972343 19.932135 -11.672490 -29.369655 -7.418779 -12.050789 -37.740459 -14.655370 56.332337 -49.039337 -35.939435 5.678085 -38.936093 31.582116 29.239739 26.867389 8.212296 42.294797 25.819287 8.065859 -56.158441 53.899996 -21.855314 -14.333629 19.798487 21.619057 
-0.580206 0.836616 1.001184 88.850707 -0.931873 103.027647 5.517664 -1.466257 -17.535269 4.052272 -1.849841 0.806903 -7.752363 0.351277 -8.070639 0.000000 -0.000000 0.000000 5.041560 -0.902863 -15.841867 -6.860482 -7.468073 -0.319204 2.718986 -9.024054 -15.991824 0.000000 -0.000000 0.000000 -3.562994 3.575942 14.724111 3.043859 -4.194072 -1.533082 2.908433 2.326702 -5.281605 -3.506898 13.106080 -13.251670 -0.415677 -9.508423 20.166292 -12.758179 -27.610280 -6.517603 -19.152862 -38.204803 -10.564268 68.799955 -52.212669 -44.687530 4.529709 -36.762770 29.474960 28.717244 27.393174 9.279484 44.748493 25.673760 7.349168 -45.820103 46.595063 -14.590647 -8.514331 16.562875 21.086602 
-0.581469 0.837538 1.001292 87.672838 -1.044393 103.147363 5.353304 -1.456864 -17.461593 3.915595 -1.100592 0.808638 -7.164559 0.846672 -8.037681 0.000000 -0.000000 0.000000 4.864636 -0.868329 -16.425706 -7.009679 -7.063664 0.220863 2.507812 -8.373170 -16.088368 0.000000 -0.000000 0.000000 -2.939622 3.480768 15.192087 1.718320 -2.602119 -1.723486 2.471278 2.868764 -5.327178 -3.578538 11.093355 -13.940381 0.030243 -8.695675 20.066120 -14.730351 -25.569654 -5.704436 -26.838610 -37.770879 -5.193266 81.764472 -56.632324 -53.505858 8.540225 -36.540947 25.019557 28.476761 27.479281 10.147938 46.041817 24.821967 6.632097 -42.850338 43.239076 -12.363803 -8.875576 16.614553 20.669485 
-0.582746 0.838695 1.000363 86.997036 -1.362133 103.822137 5.272787 -2.253821 -18.237087 3.700581 -0.359476 1.059735 -6.674721 1.464153 -8.117121 0.000000 -0.000000 0.000000 4.375682 -0.601590 -17.444042 -7.029073 -6.587218 0.485673 2.531565 -8.505708 -16.323554 0.000000 -0.000000 0.000000 -2.222109 3.503111 14.680753 0.652369 -1.325769 -1.516232 1.577624 2.992815 -5.206842 -3.030545 9.825859 -15.149472 -0.240733 -8.546766 20.628170 -16.583460 -22.772678 -4.549434 -34.064655 -35.956563 0.760608 90.401970 -61.708789 -58.692347 20.605636 -42.149952 18.907066 27.410033 26.667871 9.918424 47.680890 25.181355 7.338883 -39.684100 40.801514 -10.031995 -14.614170 18.539882 18.387299 
-0.583804 0.840488 1.000321 86.426333 -1.857987 104.018515 4.335433 -1.633274 -18.862448 3.644936 -1.301320 1.898828 -5.907672 2.065881 -8.479678 0.000000 -0.000000 0.000000 3.590256 -1.065436 -17.992652 -6.715959 -5.348665 0.882499 2.800930 -8.897682 -16.420322 0.000000 -0.000000 0.000000 -1.649319 3.542625 14.990730 -0.246047 -0.544389 -2.258701 0.686897 3.448504 -4.649647 -2.502888 8.890095 -15.501048 -0.442455 -8.314645 20.511999 -18.780456 -20.801865 -3.264088 -38.593736 -31.947626 5.939495 85.197253 -67.852766 -49.506941 40.166123 -48.510819 13.387832 27.888777 26.548371 10.445045 47.316955 24.832484 6.994868 -38.041069 39.567761 -9.278220 -25.245878 21.309328 15.171364 
-0.584380 0.841758 0.999342 86.410029 -2.211244 104.663492 4.003927 -1.565169 -20.166566 3.354293 -1.214294 2.965314 -5.522251 1.793321 -8.723818 0.000000 -0.000000 0.000000 3.065148 -0.985101 -19.251526 -6.749574 -5.327706 1.941335 2.550090 -8.990167 -16.863370 0.000000 -0.000000 0.000000 -0.992246 3.625353 14.252664 -0.643924 -0.328638 -1.983730 -0.198365 3.713879 -4.824984 -2.119404 8.844713 -15.028518 -0.996995 -9.042704 20.498327 -20.078183 -19.750299 -1.821445 -41.053577 -27.977857 8.705761 61.152409 -70.701304 -23.251411 40.110724 -51.472165 16.733382 28.080124 25.934527 10.996694 47.228011 24.858645 6.540388 -36.759123 39.720269 -7.522172 -28.060552 22.168204 13.487111 
